<svg  viewBox="0 0 31 41" fill="none" xmlns="http://www.w3.org/2000/svg">
<path d="M21.875 25.1726H20.4925L20.0025 24.5547C21.7768 21.8636 22.7519 18.4279 22.75 14.8747C22.75 11.9328 22.0829 9.05691 20.833 6.61078C19.5831 4.16464 17.8065 2.25811 15.728 1.13228C13.6495 0.00644493 11.3624 -0.288124 9.15585 0.28582C6.94932 0.859765 4.92249 2.27645 3.33167 4.35671C1.74084 6.43698 0.657479 9.0874 0.218573 11.9728C-0.220334 14.8582 0.00492859 17.849 0.865875 20.567C1.72682 23.285 3.18478 25.6082 5.05539 27.2426C6.926 28.8771 9.12524 29.7495 11.375 29.7495C14.1925 29.7495 16.7825 28.3993 18.7775 26.1566L19.25 26.7974V28.6053L28 40.0245L30.6075 36.6147L21.875 25.1726ZM11.375 25.1726C7.0175 25.1726 3.50001 20.5729 3.50001 14.8747C3.50001 9.17657 7.0175 4.57685 11.375 4.57685C15.7325 4.57685 19.25 9.17657 19.25 14.8747C19.25 20.5729 15.7325 25.1726 11.375 25.1726Z" fill="white"/>
</svg>
