<svg  viewBox="0 0 24 37" fill="none" xmlns="http://www.w3.org/2000/svg">
<path fill-rule="evenodd" clip-rule="evenodd" d="M12.4937 36.4293L12.4971 36.4273L12.5057 36.4202L12.5314 36.3968L12.6326 36.3103C12.7183 36.2351 12.8434 36.1252 13.0011 35.9808C13.3166 35.694 13.764 35.2719 14.298 34.7298C15.6998 33.308 17.0105 31.7646 18.2194 30.1122C21.0549 26.2207 24 20.6674 24 14.3167C24 10.5229 22.7366 6.88168 20.4874 4.19654C19.3757 2.86759 18.0535 1.81265 16.5969 1.09244C15.1403 0.372223 13.578 0.000954378 12 0C10.422 0.000821147 8.8598 0.37193 7.40318 1.09197C5.94657 1.81201 4.62433 2.86676 3.51257 4.19552C1.26122 6.8868 -0.00151116 10.5256 1.35722e-06 14.3177C1.35722e-06 20.6674 2.94514 26.2207 5.78057 30.1122C6.98946 31.7646 8.30022 33.308 9.702 34.7298C10.2369 35.2719 10.6834 35.694 10.9989 35.9808C11.1536 36.1223 11.3099 36.2613 11.4677 36.3978L11.4951 36.4202L11.5029 36.4273L11.5063 36.4293C11.802 36.6765 12.198 36.6765 12.4937 36.4293ZM16.2857 14.2394C16.2857 15.5881 15.8342 16.8816 15.0305 17.8353C14.2267 18.789 13.1366 19.3248 12 19.3248C10.8634 19.3248 9.77327 18.789 8.96954 17.8353C8.16582 16.8816 7.71429 15.5881 7.71429 14.2394C7.71429 12.8906 8.16582 11.5971 8.96954 10.6434C9.77327 9.68966 10.8634 9.15387 12 9.15387C13.1366 9.15387 14.2267 9.68966 15.0305 10.6434C15.8342 11.5971 16.2857 12.8906 16.2857 14.2394Z" fill="#FF595A"/>
</svg>
